<svg id="rabbithole" data-name="rabbithole" xmlns="http://www.w3.org/2000/svg" viewBox="0 0 500 500">
<defs>
<style>.cls-1{fill:#000000;}</style>
</defs>
<title>RabbitHole_icon</title>
<path class="cls-1" d="M328.08,307.36a133.45,133.45,0,0,0-10.64,52.37,7.85,7.85,0,0,1-15.7,0c0-82.61,67.21-149.81,149.81-149.81a7.67,7.67,0,0,1,1.81.22,8.75,8.75,0,0,0-1.81-17.3c-72.61,0-134.53,46.62-157.42,111.5-12.08-.78-24.55-1.29-37.3-1.51a202.11,202.11,0,0,0-8.14,56.9,8.09,8.09,0,1,1-16.17,0,220.54,220.54,0,0,1,7.46-57h-.23a219.48,219.48,0,0,1,211.8-162.26,8.74,8.74,0,1,0,0-17.48A237,237,0,0,0,221.62,303q-15,.4-29.42,1.34a267.47,267.47,0,0,0-5.78,55.39,8.23,8.23,0,0,1-16.46,0,284.83,284.83,0,0,1,5.17-54.09h0l.09-.42c.18-.92.37-1.83.56-2.74.22-1.1.45-2.2.69-3.29s.41-1.88.63-2.81c.26-1.16.54-2.32.82-3.48.2-.82.39-1.64.6-2.46.45-1.81.93-3.61,1.42-5.41.23-.85.48-1.7.72-2.54.32-1.14.64-2.27,1-3.4.26-.87.52-1.73.79-2.6q.56-1.82,1.14-3.6c.23-.74.46-1.48.71-2.21.6-1.82,1.22-3.62,1.86-5.42.25-.72.52-1.43.78-2.14.45-1.23.9-2.46,1.37-3.68.29-.76.58-1.52.88-2.28.5-1.29,1-2.58,1.54-3.86.25-.61.49-1.23.74-1.83q1.16-2.75,2.34-5.46l.72-1.58c.61-1.38,1.24-2.75,1.88-4.11.29-.63.59-1.26.89-1.88q1-2.08,2-4.16c.24-.47.47-.95.7-1.42q1.41-2.76,2.86-5.5c.17-.31.34-.61.5-.92.83-1.55,1.68-3.08,2.54-4.61l.83-1.46c.85-1.48,1.7-3,2.58-4.41.2-.35.41-.7.62-1.05q1.66-2.78,3.4-5.51l.13-.21c1.09-1.72,2.21-3.42,3.34-5.12l.73-1.09c1-1.53,2.07-3,3.14-4.57l.52-.75q3.78-5.35,7.84-10.55l.61-.78q1.81-2.33,3.68-4.6l.46-.56Q238,176,242.55,171l.52-.57c1.37-1.5,2.75-3,4.16-4.47.15-.17.31-.33.47-.5,1.56-1.63,3.13-3.26,4.73-4.86A279.76,279.76,0,0,1,451.55,78.13a8.74,8.74,0,1,0,0-17.48A299.25,299.25,0,0,0,157,307.49c-79.26,9.22-134.86,30.76-134.86,55.88,0,33.49,98.94,60.65,221,60.65s221-27.16,221-60.65C464.12,338.13,408,316.5,328.08,307.36Z"/>
</svg>